HIERARCHY
ROOT Hips
{
  OFFSET -272.383 99.2113 258.667
  CHANNELS 6 Xposition Yposition Zposition Zrotation Xrotation Yrotation
  JOINT ToSpine
  {
    OFFSET -2.69724 7.43032 -0.144315
    CHANNELS 3 Zrotation Xrotation Yrotation
    JOINT Spine
    {
      OFFSET -0.0310711 10.7595 1.96963
      CHANNELS 3 Zrotation Xrotation Yrotation
      JOINT Spine1
      {
        OFFSET 19.9056 3.91189 0.764692
        CHANNELS 3 Zrotation Xrotation Yrotation
        JOINT Neck
        {
          OFFSET 25.9749 7.03908 -0.130764
          CHANNELS 3 Zrotation Xrotation Yrotation
          JOINT Head
          {
            OFFSET 9.52751 0.295786 -0.907742
            CHANNELS 3 Zrotation Xrotation Yrotation
            End Site
            {
              OFFSET 16.4037 0.713936 2.7358
            }
          }
        }
        JOINT LeftShoulder
        {
          OFFSET 17.7449 4.33886 11.7777
          CHANNELS 3 Zrotation Xrotation Yrotation
          JOINT LeftArm
          {
            OFFSET 0.911315 1.27913 9.80584
            CHANNELS 3 Zrotation Xrotation Yrotation
            JOINT LeftForeArm
            {
              OFFSET 28.6126 1.18197 -3.53199
              CHANNELS 3 Zrotation Xrotation Yrotation
              JOINT LeftHand
              {
                OFFSET 27.5088 0.0218783 0.327423
                CHANNELS 3 Zrotation Xrotation Yrotation
                End Site
                {
                  OFFSET 18.6038 -0.000155887 0.382096
                }
              }
            }
          }
        }
        JOINT RightShoulder
        {
          OFFSET 17.1009 2.89543 -12.2328
          CHANNELS 3 Zrotation Xrotation Yrotation
          JOINT RightArm
          {
            OFFSET 1.4228 0.178766 -10.211
            CHANNELS 3 Zrotation Xrotation Yrotation
            JOINT RightForeArm
            {
              OFFSET 28.733 1.87905 2.64907
              CHANNELS 3 Zrotation Xrotation Yrotation
              JOINT RightHand
              {
                OFFSET 27.4588 0.290562 -0.101845
                CHANNELS 3 Zrotation Xrotation Yrotation
                End Site
                {
                  OFFSET 17.8396 -0.255518 -0.000602873
                }
              }
            }
          }
        }
      }
    }
  }
  JOINT LeftUpLeg
  {
    OFFSET -5.61296 -2.22332 -10.2353
    CHANNELS 3 Zrotation Xrotation Yrotation
    JOINT LeftLeg
    {
      OFFSET 2.56703 -44.7417 -7.93097
      CHANNELS 3 Zrotation Xrotation Yrotation
      JOINT LeftFoot
      {
        OFFSET 3.16933 -46.5642 -3.96578
        CHANNELS 3 Zrotation Xrotation Yrotation
        JOINT LeftToeBase
        {
          OFFSET 0.346054 -6.02161 12.8035
          CHANNELS 3 Zrotation Xrotation Yrotation
          End Site
          {
            OFFSET 0.134235 -1.35082 5.13018
          }
        }
      }
    }
  }
  JOINT RightUpLeg
  {
    OFFSET -5.7928 -1.72406 10.6446
    CHANNELS 3 Zrotation Xrotation Yrotation
    JOINT RightLeg
    {
      OFFSET -2.57161 -44.7178 -7.85259
      CHANNELS 3 Zrotation Xrotation Yrotation
      JOINT RightFoot
      {
        OFFSET -3.10148 -46.5936 -4.03391
        CHANNELS 3 Zrotation Xrotation Yrotation
        JOINT RightToeBase
        {
          OFFSET -0.0828122 -6.13587 12.8035
          CHANNELS 3 Zrotation Xrotation Yrotation
          End Site
          {
            OFFSET -0.131328 -1.35082 5.13018
          }
        }
      }
    }
  }
}
MOTION
Frames:	13
Frame Time:	0.0333333
-326.552 98.7701 317.634 71.4085 60.8487 17.2406 -70.1915 0 88.8779 84.6529 68.0632 -5.27801 0.719492 15.2067 13.3733 -135.039 24.774 172.053 -171.896 64.9682 -165.105 3.6548 1.03593 -36.4128 -55.7886 37.8019 -120.338 9.39682 14.0503 -27.1815 4.41274 -0.125185 -1.52942 1.33299 -4.20935 46.1022 -92.5385 -35.676 63.2656 -5.23096 -15.2195 9.30354 11.1114 -0.982512 -11.0421 -86.4319 -3.01435 76.3394 1.71268 24.9011 -2.42099 9.483 17.5267 -1.42749 -37.0021 -44.3019 -39.1702 -46.2538 -2.58689 78.4703 1.9216 29.8211 -1.99744 -3.70506 1.06523 0.577189 0.146783 3.70013 2.9702 
-323.959 98.6592 315.253 71.7295 60.7264 18.1917 -70.1915 0 88.8779 92.6488 67.7318 -11.1262 -1.1819 15.0243 13.5559 -136.836 24.7598 172.714 -173.608 64.8191 -165.087 3.46719 0.325281 -36.2188 -55.6914 39.1327 -119.373 7.61979 12.4329 -23.448 4.97044 -0.10251 -0.697352 1.28941 -4.19055 44.9692 -92.8794 -36.7574 64.6028 -4.97778 -14.4571 9.63214 12.3411 -1.76889 -17.4797 -81.4484 -2.8591 72.9136 -0.959912 36.5355 2.67212 9.92061 13.9802 -1.49734 -19.0832 -27.1929 -35.0719 -46.667 -1.42227 77.5464 2.60768 33.0324 -1.87104 -4.75195 1.2992 0.707426 0.167581 0.869077 -0.150865 
-321.339 98.6123 312.859 71.4347 59.7017 19.8253 -70.1915 0 88.8779 100.502 67.6643 -15.8458 -3.50396 15.3344 13.4159 -136.146 24.3074 171.929 -168.415 64.4737 -168.6 3.32717 -0.489525 -36.8159 -60.8723 41.1511 -115.186 5.17533 15.1566 -19.4903 4.85039 -0.0864678 -0.399 1.27818 -4.34965 43.2292 -93.8777 -37.4561 66.1154 -5.02196 -12.1175 10.0304 12.1348 -1.62928 -16.4276 -74.6281 -2.53541 74.3593 -1.24363 48.7966 6.96601 7.72405 13.9205 -0.971916 -1.85294 -6.629 -25.0237 -47.405 0.638624 76.9472 2.95086 34.6709 -1.90684 -4.71531 -0.976585 0.770989 0.551476 2.80603 -0.359667 
-318.58 98.664 310.548 71.6347 58.3314 20.8674 -70.1915 0 88.8779 108.45 67.4974 -20.7018 -5.39895 16.0046 12.521 -137.924 24.2877 171.228 -166.441 64.4626 -171.393 3.2932 -0.832766 -37.3925 -79.1356 43.9484 -102.992 0.868166 26.8428 -14.3238 5.77316 -0.0413845 0.767782 1.23895 -4.28722 42.6012 -91.988 -38.4659 69.8023 -4.42371 -11.1288 11.3274 14.3772 -1.61166 -13.6705 -67.385 -1.94615 76.5103 -1.92879 59.2593 10.6061 4.47983 15.8731 -0.133148 -12.7718 -26.4154 -9.49738 -48.8759 3.56317 77.146 2.79422 34.7849 -2.3004 -5.71792 -2.12839 0.909492 0.282709 0.983142 -0.792048 
-315.721 99.0771 308.096 71.8593 56.6049 20.6193 -70.1915 0 88.8779 113.879 67.8755 -24.4237 -7.19387 17.1816 11.3642 -139.548 24.9053 170.568 -167.919 65.1835 -170.804 3.12763 -1.58497 -37.6567 -96.3917 43.599 -91.0332 -4.65828 37.038 -6.78534 6.21915 -0.0584469 0.534717 1.10815 -3.73852 43.4759 -87.4898 -38.4735 74.4766 -3.79571 -8.82947 13.0991 16.6606 -1.22015 -9.01023 -60.2372 -2.07571 79.002 -2.96163 65.5097 12.2597 4.50063 14.024 -0.198413 -11.2369 -24.7773 -5.72301 -50.9109 5.6925 78.0041 2.15596 33.7847 -1.85366 -6.77281 -2.56975 1.02409 -0.107491 -1.12704 -0.827207 
-312.81 99.458 305.481 71.9052 54.6764 19.691 -70.1915 0 88.8779 116.503 68.5958 -26.7129 -8.13595 18.3825 10.6398 -141.216 25.2909 170.583 -171.171 65.5926 -168.531 3.0221 -2.04287 -37.7795 -101.771 42.7522 -86.831 -8.08722 41.4061 -0.144517 3.99718 0.0354447 2.409 1.00395 -3.38561 43.4297 -81.1582 -39.3137 80.5609 -2.97021 -4.4061 15.5484 17.424 -1.62677 -11.3481 -53.9555 -2.34786 82.1734 -3.89878 68.0227 12.0479 5.07732 12.2119 -0.386645 -12.5972 -28.255 -3.8334 -52.8147 6.84739 78.8599 1.28904 33.2332 -0.647276 -6.64552 -3.9134 1.02966 -0.283954 -2.03502 -0.780128 
-310.138 99.6926 302.941 71.3977 51.5111 19.2603 -70.1915 0 88.8779 121.97 69.347 -30.6848 -10.7086 20.4174 8.87631 -141.646 22.8323 169.042 -160.953 62.8414 -177.391 2.85586 -2.32351 -36.4424 -105.04 42.9144 -83.2326 -10.9998 43.896 5.63112 2.45659 0.0534152 3.52767 0.968291 -3.15784 44.7589 -75.5512 -38.5369 85.4041 -2.19325 -1.29283 17.5211 18.7948 -0.977835 -6.47306 -47.5016 -1.76394 85.7282 -4.22758 67.8646 10.8347 5.46135 11.3292 -0.49428 -14.8082 -33.4783 -2.44451 -53.8612 8.23163 80.0792 0.42891 32.9292 1.40674 -7.5611 -4.77799 1.11508 -0.405003 -2.81336 -1.00291 
-307.189 99.9196 299.909 71.5876 49.7315 18.3235 -70.1915 0 88.8779 123.22 69.8873 -31.3385 -10.608 21.348 7.88416 -143.476 21.0117 171.278 -156.158 60.1625 179.21 2.95666 -1.96033 -36.6283 -107.74 42.1782 -80.0056 -12.6247 45.1773 9.15506 0.836052 0.0372885 4.45246 0.943622 -3.17881 43.4279 -69.2954 -39.107 91.5542 -1.2438 2.54861 19.9467 19.8693 -0.298273 -2.12243 -43.4933 -1.60933 88.0953 -3.6938 64.3983 8.32526 5.20889 9.86451 -0.478205 -14.9094 -36.2146 1.83413 -56.5525 8.66421 80.3738 -0.165032 31.91 3.48049 -8.57132 -4.91196 1.19591 -0.915034 -5.75233 -1.59358 
-304.219 99.9081 296.811 71.5224 49.1243 17.8067 -70.1915 0 88.8779 122.674 69.9927 -30.5662 -10.4617 21.7159 6.48954 -140.777 18.7339 170.14 -147.929 56.6482 172.562 2.94428 -1.7897 -35.9257 -110.744 41.5242 -76.3894 -13.0154 46.7179 10.9949 -0.463978 0.0061329 4.60391 0.852938 -2.79481 44.5074 -65.784 -37.4894 94.5675 -0.127779 6.48171 23.9288 17.1218 -0.466325 -3.57977 -40.8254 -1.95665 89.1833 -2.30273 57.5727 7.48274 5.6283 8.38857 -0.597773 -16.7779 -38.8955 -0.266775 -59.2881 8.52278 80.145 -0.454225 31.2813 4.37958 -8.38244 -6.67987 1.17833 -1.1055 -6.3786 -0.778251 
-301.275 99.8175 293.543 71.064 48.7518 17.8666 -70.1915 0 88.8779 122.51 70.4508 -30.7367 -10.9817 21.7964 6.9064 -143.673 19.9474 169.484 -146.237 56.7986 165.307 2.95685 -1.9479 -36.5908 -112.533 40.4454 -73.6228 -12.3482 46.9223 11.0449 0.113656 0.0264955 6.11045 0.908111 -3.03362 43.7387 -69.8263 -37.0443 93.2277 0.591987 4.26575 27.9568 14.8745 -0.743481 -6.30729 -39.3465 -2.40188 89.1703 -1.22174 48.237 6.97587 5.93036 7.19429 -0.680057 -16.9492 -39.9066 0.677497 -62.2137 8.46499 79.9132 -0.513745 30.1132 5.29819 -8.78267 -7.1416 1.20157 -1.44182 -8.88043 -3.17545 
-298.514 99.6541 290.622 70.1125 47.0989 17.8192 -70.1915 0 88.8779 122.831 71.649 -32.0801 -12.1741 22.385 8.11117 -144.569 20.5257 167.97 -142.087 56.085 159.815 2.88144 -2.47509 -37.326 -113.4 39.5363 -71.5897 -11.9905 46.7995 11.0248 -0.895556 -0.0129418 6.26678 1.0007 -3.35421 43.6665 -72.358 -35.9172 92.6572 0.164922 4.36643 31.2171 11.9087 -1.17837 -12.2517 -38.589 -2.21236 89.2397 -0.429846 36.0613 7.2235 6.16046 9.17219 -0.685541 -16.1924 -39.1623 1.95659 -63.5263 8.41439 80.2551 -1.01756 30.0414 6.38458 -8.87913 -7.5944 1.2047 -1.85463 -10.8014 -3.17358 
-295.675 99.5414 287.23 70.2355 46.8055 17.9295 -70.1915 0 88.8779 121.827 71.5166 -30.2198 -11.3107 22.492 6.6158 -145.66 20.2272 168.979 -145.143 56.4594 162.059 2.8781 -2.19954 -36.3396 -114.557 39.9285 -69.13 -11.5821 46.1536 10.9036 -1.22262 -0.0270837 6.41596 1.01098 -3.47302 42.7198 -72.5089 -36.5873 94.4939 -0.496924 4.89481 33.7467 12.5517 -1.62641 -15.8422 -39.9852 -2.59712 87.8683 1.13908 23.8826 6.84224 6.60656 10.3006 -0.757697 -12.8183 -34.3804 6.75595 -66.9481 8.70858 80.2816 -0.888905 28.4885 6.19021 -8.75784 -7.51513 1.1983 -2.16485 -12.3002 -3.67597 
-292.767 99.3734 283.84 70.5502 45.9291 18.1365 -70.1915 0 88.8779 118.592 72.1323 -25.911 -9.2234 22.9389 5.17755 -145.205 19.9789 168.339 -143.335 55.8186 161.135 2.93093 -1.81588 -35.8306 -115.126 40.4328 -67.69 -11.511 46.1434 10.9076 -2.09736 -0.054871 5.89392 0.781593 -2.63779 43.1869 -74.3491 -35.8419 94.042 3.1128 -0.491571 34.5736 12.7197 -0.998368 -9.76835 -40.5327 -1.46739 90.671 2.5889 15.3722 1.39878 5.91804 9.56233 -0.629423 -10.0089 -28.5188 9.8705 -70.3142 9.24586 80.5265 -0.653587 26.914 6.80461 -8.80829 -6.2859 1.20756 -2.73108 -14.8458 -4.01485 
